<?xml version="1.0" standalone="no"?>
<!DOCTYPE svg PUBLIC "-//W3C//DTD SVG 20010904//EN"
 "http://www.w3.org/TR/2001/REC-SVG-20010904/DTD/svg10.dtd">
<svg version="1.0" xmlns="http://www.w3.org/2000/svg"
 width="782.000000pt" height="782.000000pt" viewBox="0 0 782.000000 782.000000"
 preserveAspectRatio="xMidYMid meet">
<metadata>
Created by potrace 1.11, written by Peter Selinger 2001-2013
</metadata>
<g transform="translate(0.000000,782.000000) scale(0.100000,-0.100000)"
fill="#000000" stroke="none">
<path d="M517 5321 c-43 -9 -81 -34 -111 -75 -21 -27 -21 -32 -21 -1136 0
-1104 0 -1109 21 -1136 11 -15 33 -37 48 -48 26 -20 42 -21 329 -24 166 -2
312 0 324 3 13 3 38 19 58 36 l35 31 35 -31 c56 -49 84 -53 391 -49 l281 3 40
27 c77 51 73 9 73 812 l0 716 23 5 c26 6 479 33 625 37 l103 3 364 -760 365
-760 0 -537 0 -538 290 0 290 0 0 528 0 527 368 765 368 765 104 -3 c120 -3
429 -19 572 -28 l97 -7 3 -717 3 -716 27 -41 c47 -71 57 -73 395 -73 332 0
346 3 388 68 11 17 22 31 25 32 3 0 14 -14 23 -30 10 -17 36 -39 58 -51 38
-19 55 -20 347 -17 306 3 307 3 341 27 18 13 42 42 52 65 18 39 19 89 19 1116
l0 1076 -22 44 c-48 95 -90 104 -458 98 -236 -3 -246 -4 -282 -26 -21 -13 -46
-37 -55 -53 -10 -16 -20 -29 -23 -29 -3 1 -14 15 -25 32 -11 18 -36 41 -55 53
-33 19 -51 20 -336 20 l-300 0 -42 -27 c-78 -52 -77 -47 -80 -456 l-3 -363
-47 6 c-51 5 -316 20 -555 31 -131 6 -148 8 -144 23 3 9 48 105 100 214 l96
197 -322 0 -322 -1 -84 -199 c-46 -110 -89 -203 -95 -207 -6 -5 -200 -6 -431
-3 l-419 5 -86 200 -86 200 -317 3 c-174 1 -317 -2 -317 -6 0 -5 43 -97 95
-206 52 -108 95 -198 95 -200 0 -2 -66 -7 -147 -11 -82 -3 -242 -13 -357 -21
-114 -7 -212 -11 -217 -8 -5 3 -9 164 -9 358 0 350 0 353 -23 386 -12 18 -35
43 -50 54 -27 20 -39 21 -347 21 l-318 0 -42 -34 c-41 -32 -42 -33 -55 -13 -8
10 -31 28 -52 38 -34 17 -66 19 -308 21 -148 1 -287 -2 -308 -6z m590 -114
c17 -17 18 -76 21 -1080 2 -775 -1 -1069 -9 -1089 -18 -45 -56 -50 -340 -46
-236 3 -259 5 -278 22 l-21 19 0 1078 0 1078 27 21 c26 20 35 21 305 18 251
-3 279 -5 295 -21z m6037 2 l26 -20 0 -1074 c0 -1041 -1 -1073 -19 -1096 l-19
-24 -287 0 -287 0 -19 24 c-18 23 -19 55 -19 1093 l0 1069 25 24 24 25 274 0
c262 0 275 -1 301 -21z m-5250 -10 l26 -20 0 -1070 c0 -1056 0 -1069 -20
-1089 -19 -19 -33 -20 -298 -20 -258 0 -280 1 -295 18 -16 17 -17 104 -15
1098 l3 1078 25 13 c18 9 96 13 286 13 249 0 263 -1 288 -21z m4414 5 l22 -15
0 -1079 0 -1079 -22 -15 c-19 -14 -65 -16 -295 -16 -260 0 -274 1 -293 20 -20
20 -20 33 -20 1090 0 1057 0 1070 20 1090 19 19 33 20 293 20 230 0 276 -2
295 -16z m-2110 -709 c2 -2 -33 -88 -77 -191 l-81 -187 23 -15 c45 -31 108
-107 137 -166 119 -245 -12 -535 -275 -611 -89 -26 -214 -17 -297 22 -195 92
-296 303 -242 508 19 75 54 136 117 202 l49 53 -81 189 c-44 104 -81 195 -81
202 0 9 86 11 402 5 222 -4 404 -9 406 -11z"/>
</g>
</svg>
