<?xml version="1.0" standalone="no"?>
<!DOCTYPE svg PUBLIC "-//W3C//DTD SVG 20010904//EN"
 "http://www.w3.org/TR/2001/REC-SVG-20010904/DTD/svg10.dtd">
<svg version="1.0" xmlns="http://www.w3.org/2000/svg"
 width="752.000000pt" height="752.000000pt" viewBox="0 0 752.000000 752.000000"
 preserveAspectRatio="xMidYMid meet">
<metadata>
Created by potrace 1.11, written by Peter Selinger 2001-2013
</metadata>
<g transform="translate(0.000000,752.000000) scale(0.100000,-0.100000)"
fill="#000000" stroke="none">
<path d="M3332 7502 c-18 -2 -30 -7 -28 -11 3 -4 7 -20 10 -36 4 -22 -2 -36
-30 -67 -31 -35 -35 -45 -33 -86 l3 -47 -69 -43 c-43 -26 -72 -51 -76 -65 -8
-30 -1 -68 15 -86 8 -9 21 -33 30 -54 10 -25 20 -36 27 -31 8 5 9 3 5 -5 -5
-7 -14 -10 -21 -7 -34 13 -40 -64 -10 -127 25 -53 25 -68 -5 -123 -39 -74 -53
-115 -50 -149 3 -44 35 -112 56 -118 36 -10 89 -20 115 -22 32 -2 94 -39 104
-63 4 -9 9 -30 11 -47 9 -79 11 -92 16 -101 4 -5 3 -16 -2 -24 -12 -19 7 -40
36 -40 13 0 24 -4 24 -10 0 -18 -40 -11 -57 10 -23 26 -36 25 -70 -5 -15 -14
-32 -28 -38 -32 -5 -5 -32 -26 -60 -49 -27 -22 -66 -50 -85 -62 -37 -22 -56
-41 -125 -127 -22 -28 -48 -59 -57 -69 -10 -11 -18 -27 -18 -36 0 -9 -4 -20
-9 -26 -5 -5 -14 -27 -21 -49 -7 -22 -17 -45 -22 -51 -5 -7 -11 -25 -13 -40
-2 -16 -6 -40 -9 -54 -20 -92 -22 -101 -37 -160 -6 -25 -12 -52 -14 -60 -2 -8
-4 -15 -5 -15 -2 0 -5 -14 -14 -53 -3 -12 -7 -26 -11 -31 -3 -5 -7 -51 -10
-103 -2 -51 -6 -110 -9 -130 -19 -126 -24 -154 -33 -188 -3 -14 -7 -32 -8 -40
-1 -8 -4 -22 -7 -30 -3 -8 -18 -51 -33 -95 -16 -44 -37 -98 -48 -119 -17 -34
-35 -112 -52 -221 -3 -16 -12 -64 -20 -105 -19 -95 -22 -110 -29 -151 -3 -19
-15 -83 -26 -144 -12 -60 -23 -121 -25 -135 -2 -14 -4 -25 -6 -25 -1 0 -3 -33
-5 -74 -2 -41 -5 -80 -8 -87 -3 -8 -1 -16 5 -19 5 -4 7 -11 3 -16 -3 -5 -14
-45 -25 -87 -26 -106 -26 -103 -38 -136 -7 -16 -12 -44 -13 -62 -1 -36 -29
-74 -53 -74 -23 0 -35 35 -40 114 -2 41 -8 84 -14 95 -6 11 -11 29 -11 40 0
12 -5 21 -12 21 -6 0 -9 3 -5 6 12 12 -92 191 -143 246 -14 15 -38 42 -55 60
-31 33 -166 123 -225 150 -39 17 -63 25 -100 32 -14 2 -36 7 -50 10 -100 23
-175 28 -228 14 -20 -6 -62 -12 -92 -13 -74 -3 -125 -19 -242 -71 -54 -24
-115 -46 -136 -48 -77 -7 -248 -112 -334 -205 -43 -47 -107 -146 -112 -174 -1
-7 -10 -30 -19 -51 -21 -47 -43 -125 -53 -181 -12 -73 -11 -237 3 -289 7 -28
15 -60 18 -71 5 -26 68 -201 85 -237 7 -16 18 -28 24 -28 6 0 44 -32 85 -70
41 -39 80 -70 86 -70 7 0 18 -6 24 -14 13 -15 103 -54 235 -101 44 -16 87 -36
97 -46 10 -10 31 -20 48 -22 16 -3 34 -8 39 -11 6 -3 26 -8 45 -10 20 -3 55
-10 79 -17 24 -7 63 -13 88 -15 86 -6 209 -6 227 0 10 3 33 8 50 11 79 13 208
79 306 155 55 43 170 177 172 200 1 13 30 58 53 83 14 15 23 27 19 27 -3 0 3
19 13 43 10 23 22 65 25 92 10 81 13 92 25 114 14 28 32 26 70 -5 38 -32 60
-73 63 -119 4 -42 -15 -210 -23 -210 -2 0 -8 -33 -15 -85 -3 -25 -8 -54 -11
-65 -3 -11 -7 -33 -9 -50 -2 -16 -4 -30 -5 -30 -2 0 -10 -37 -12 -57 -1 -10
-6 -18 -11 -18 -4 0 -6 -4 -3 -9 5 -8 -56 -210 -81 -271 -3 -8 -7 -17 -8 -20
-1 -3 -4 -12 -8 -20 -3 -8 -26 -71 -50 -140 -61 -171 -99 -261 -143 -343 -13
-23 -18 -26 -30 -16 -20 16 -50 -12 -60 -54 -8 -40 -35 -97 -45 -97 -4 0 -11
5 -14 10 -12 20 -34 9 -56 -26 -21 -35 -21 -38 -5 -64 10 -18 13 -31 6 -35
-12 -8 -32 3 -25 14 2 5 -2 16 -9 27 -13 17 -19 14 -102 -46 -49 -35 -98 -72
-108 -82 -11 -10 -29 -17 -40 -16 -12 1 -52 -8 -91 -20 -99 -29 -173 -48 -198
-51 -15 -1 -57 -95 -57 -128 0 -12 12 -30 28 -40 54 -38 164 -46 567 -46 521
1 489 0 515 21 21 17 22 22 11 55 -10 29 -9 44 2 78 8 24 13 61 11 83 -13 137
-13 134 9 159 12 14 43 49 69 79 25 29 58 67 73 83 14 17 36 48 47 70 27 52
68 111 107 155 50 56 84 133 142 320 37 121 78 215 120 276 16 23 29 48 29 55
0 6 17 39 38 73 21 34 54 93 73 131 19 39 55 106 80 151 45 77 90 172 86 177
-7 9 53 57 76 61 33 6 123 -16 178 -44 42 -22 144 -122 209 -205 39 -51 127
-212 157 -287 9 -24 28 -61 42 -83 14 -22 31 -49 38 -60 7 -11 30 -50 53 -87
22 -37 71 -98 108 -137 71 -73 69 -68 76 -181 2 -19 7 -46 13 -60 6 -14 14
-41 18 -60 4 -19 10 -39 13 -45 4 -5 8 -18 9 -28 2 -9 15 -50 29 -90 14 -39
45 -128 69 -197 23 -69 52 -142 64 -163 11 -21 21 -44 21 -51 0 -7 9 -35 20
-62 84 -212 132 -340 134 -363 1 -14 -4 -41 -12 -60 -7 -18 -11 -39 -8 -47 3
-7 2 -15 -2 -18 -9 -5 -8 -59 1 -73 10 -16 -1 -200 -13 -223 -12 -22 -5 -60
11 -60 5 0 25 7 45 15 33 14 69 11 59 -5 -3 -4 -21 -11 -40 -14 -19 -4 -35
-11 -35 -16 0 -6 -5 -10 -12 -10 -20 0 -46 -30 -41 -49 2 -10 25 -25 54 -35
27 -10 46 -22 43 -27 -7 -13 -71 -11 -96 2 -54 29 -93 17 -111 -33 -6 -17 15
-18 343 -18 l349 0 -4 58 c-2 33 -13 90 -23 128 -18 66 -22 118 -10 129 11 12
-25 125 -40 125 -4 0 -16 14 -26 32 -18 29 -18 32 -2 43 21 16 20 27 -4 43
-11 7 -20 21 -20 31 0 10 -7 22 -15 25 -12 4 -13 11 -7 23 11 22 5 187 -8 229
-14 41 -20 69 -27 129 -3 28 -12 56 -21 63 -13 10 -14 17 -6 30 7 10 8 26 3
40 -5 13 -4 22 1 22 5 0 7 13 4 28 -4 18 -1 34 8 43 7 8 19 27 26 43 12 26 15
28 60 23 68 -8 114 -18 135 -28 9 -5 17 -8 17 -5 0 3 15 0 33 -6 47 -15 165
-43 227 -54 14 -2 36 -7 50 -11 14 -3 39 -7 55 -8 17 -1 39 -4 50 -8 24 -7
241 -45 305 -53 80 -9 285 -6 315 6 17 6 31 11 33 10 8 -3 81 15 105 27 15 7
27 11 27 7 0 -4 7 -1 15 6 8 7 15 9 15 5 0 -4 6 -3 13 3 7 6 25 13 41 16 54
10 140 80 222 181 65 80 98 133 172 276 39 74 77 147 85 163 9 16 13 34 10 41
-8 22 41 45 102 49 50 3 62 8 92 38 37 38 77 136 66 166 -14 38 -46 72 -89 94
-54 26 -65 49 -56 109 9 58 9 312 0 369 -4 25 -14 86 -22 135 -14 86 -67 234
-114 316 -11 20 -26 47 -34 60 -7 13 -16 26 -19 29 -3 3 -13 16 -22 30 -68 99
-245 231 -357 265 -29 9 -63 15 -105 19 -60 5 -130 15 -215 30 -8 1 -40 6 -70
10 -55 7 -160 52 -160 68 0 4 -5 8 -11 8 -7 0 -19 8 -28 18 -25 28 -97 57
-213 86 -58 15 -110 26 -115 25 -4 -1 -10 -1 -13 0 -3 1 -23 4 -45 6 -22 2
-60 7 -85 11 -82 11 -140 7 -217 -15 -18 -5 -33 -8 -33 -5 0 2 -26 -6 -57 -17
-55 -19 -68 -24 -85 -28 -4 -1 -47 -23 -95 -47 -83 -43 -147 -88 -203 -141
-14 -13 -60 -57 -102 -96 -59 -55 -86 -91 -118 -152 -23 -44 -49 -87 -58 -95
-9 -8 -23 -27 -31 -42 -18 -35 -26 -35 -29 -3 -3 41 -28 92 -60 120 -19 17
-28 33 -25 44 5 21 -47 157 -80 211 -12 19 -21 38 -19 43 1 4 -3 7 -8 7 -6 0
-10 8 -10 18 0 10 -3 22 -7 26 -8 7 -7 6 -27 91 -14 61 -15 298 -1 380 9 50 9
101 3 188 -3 37 -1 67 4 67 5 0 6 4 3 10 -3 5 1 33 9 62 9 29 18 69 21 88 3
19 8 46 10 60 3 14 7 34 9 45 7 32 37 119 47 131 4 5 6 19 3 31 -3 12 0 32 7
44 7 13 14 26 14 29 0 3 11 27 23 54 12 27 22 50 22 52 0 2 16 38 35 80 19 41
35 84 35 94 0 10 5 31 11 47 17 45 13 122 -8 145 -37 41 -61 46 -203 42 -333
-10 -381 -12 -387 -18 -4 -4 -8 -16 -10 -29 -7 -45 -22 -39 -19 9 2 40 6 49
22 51 79 8 304 24 374 27 88 2 176 -16 225 -48 33 -22 44 -20 54 7 20 51 28
157 18 212 -2 11 5 26 15 35 19 15 21 34 19 156 -1 57 -6 69 -66 169 -36 59
-65 111 -65 117 0 13 -3 15 -170 155 -148 123 -184 158 -216 209 -10 16 -27
39 -38 52 -11 12 -14 22 -8 22 7 0 12 8 12 19 0 10 9 21 20 24 21 5 34 32 53
107 6 25 16 52 23 60 6 8 26 51 43 95 18 44 39 95 47 112 53 117 56 175 15
305 -16 51 -31 104 -35 118 -3 14 -19 41 -37 60 -76 86 -112 119 -121 114 -12
-7 -347 -6 -358 1 -5 3 -11 1 -15 -4 -3 -6 -12 -8 -21 -4 -16 6 -191 10 -242
5z m241 -1608 c20 -7 29 -54 11 -61 -7 -2 -20 -1 -29 5 -16 8 -16 10 0 25 17
18 12 21 -32 18 -11 -1 -24 3 -28 8 -13 21 -25 10 -20 -16 11 -50 12 -103 3
-109 -5 -3 -5 -11 1 -18 8 -9 6 -18 -8 -30 -15 -14 -44 -19 -123 -23 -102 -5
-103 -5 -131 22 -15 15 -27 33 -27 39 0 17 16 37 31 40 33 6 58 18 63 31 9 24
65 47 96 40 31 -7 56 -30 43 -38 -12 -8 -15 -67 -4 -67 5 0 12 8 14 18 3 12 5
10 6 -7 1 -22 14 -22 17 0 1 5 2 10 3 12 1 1 4 16 6 34 5 31 -14 51 -36 37
-12 -7 -11 3 2 27 5 11 14 17 19 14 5 -3 12 -1 15 5 6 10 76 7 108 -6z m-28
-84 c-5 -28 -15 -41 -25 -35 -10 6 9 55 21 55 4 0 6 -9 4 -20z m340 -245 c-14
-14 -25 -32 -25 -39 0 -7 -11 -18 -25 -24 -14 -6 -25 -9 -25 -6 0 15 36 64 46
64 7 0 14 7 18 15 3 8 12 15 21 15 12 0 10 -6 -10 -25z m-855 -283 c0 -8 -3
-12 -7 -9 -3 4 -13 1 -21 -6 -13 -10 -15 -9 -9 6 4 10 7 26 7 34 0 13 3 13 15
3 8 -7 15 -19 15 -28z m-143 -14 c-3 -7 -5 -2 -5 12 0 14 2 19 5 13 2 -7 2
-19 0 -25z m71 -1 c8 3 10 -1 6 -12 -8 -19 23 -56 41 -49 13 5 92 -23 84 -30
-3 -3 -68 -14 -108 -18 -20 -2 -81 -63 -81 -82 0 -18 -3 -17 165 -22 156 -4
152 -3 135 -14 -8 -5 -17 -7 -20 -5 -22 14 -229 0 -245 -16 -7 -7 14 -10 70
-9 119 3 259 1 254 -4 -2 -2 -78 -7 -168 -10 -90 -4 -168 -9 -172 -12 -4 -2
-10 0 -14 6 -4 6 -10 8 -15 5 -4 -3 -10 4 -13 15 -3 11 -2 20 1 20 4 0 7 17 8
38 0 20 4 73 9 117 4 44 8 88 8 97 1 16 3 16 22 -1 11 -10 26 -16 33 -14z
m677 -47 c3 -6 10 -8 15 -5 14 9 90 -76 90 -101 0 -29 -11 -31 -30 -4 -8 11
-18 20 -21 20 -16 0 -116 63 -126 79 -9 15 -6 18 27 19 21 2 41 -2 45 -8z
m109 -162 c-4 -6 -6 -35 -5 -65 2 -65 -11 -93 -40 -88 -30 6 -37 15 -11 15 22
0 42 26 42 55 0 9 -13 24 -30 33 -37 21 -38 27 -4 29 28 1 47 20 37 37 -3 5
-1 6 6 2 6 -4 8 -12 5 -18z m-275 -542 c-7 -7 -88 -11 -94 -5 -3 3 18 7 47 8
28 1 50 -1 47 -3z m-481 -11 c-2 -3 -31 -7 -64 -10 -42 -3 -51 -2 -29 4 33 10
101 14 93 6z m684 -155 c-6 -41 -16 -42 -51 -6 l-32 33 43 -1 c40 -2 43 -4 40
-26z m-177 -96 c33 -9 78 -19 100 -24 71 -15 72 -17 69 -68 -1 -26 -3 -57 -3
-70 -1 -22 -4 -23 -48 -18 -27 2 -79 16 -118 30 -38 14 -78 26 -87 26 -10 0
-18 5 -18 11 0 6 6 9 14 6 8 -3 17 1 20 10 10 24 -3 51 -26 59 -21 6 -21 7 -3
20 10 8 15 14 11 14 -4 0 -4 5 -1 10 8 13 18 12 90 -6z m-690 -122 c-3 -3 -11
0 -18 7 -9 10 -8 11 6 5 10 -3 15 -9 12 -12z m220 -62 c3 -5 -1 -10 -10 -10
-9 0 -13 5 -10 10 3 6 8 10 10 10 2 0 7 -4 10 -10z m-215 -45 c0 -9 -5 -26
-11 -37 -6 -12 -13 -37 -14 -57 -5 -49 -4 -48 -13 -34 -9 14 -7 136 2 160 5
13 8 13 21 -1 8 -8 15 -22 15 -31z m375 31 c11 -4 33 -15 49 -23 16 -9 37 -16
48 -17 10 -1 18 -5 18 -11 -1 -9 -15 -9 -60 0 -8 2 -27 4 -41 4 -14 1 -38 12
-52 25 -14 13 -29 21 -33 17 -4 -3 -5 -1 -1 4 6 12 40 12 72 1z m456 -124
c-14 -26 -35 -42 -63 -47 -95 -16 -96 -16 -91 6 3 11 -1 25 -8 32 -8 7 -13 11
-11 11 2 -1 14 1 28 5 13 3 53 7 90 9 61 3 64 2 55 -16z m-981 -826 c0 -3 -4
-8 -10 -11 -5 -3 -10 -1 -10 4 0 6 5 11 10 11 6 0 10 -2 10 -4z m-300 -1840
c0 -11 -19 -15 -25 -6 -3 5 1 10 9 10 9 0 16 -2 16 -4z"/>
</g>
</svg>
