<?xml version="1.0" standalone="no"?>
<!DOCTYPE svg PUBLIC "-//W3C//DTD SVG 20010904//EN"
 "http://www.w3.org/TR/2001/REC-SVG-20010904/DTD/svg10.dtd">
<svg version="1.0" xmlns="http://www.w3.org/2000/svg"
 width="752.000000pt" height="752.000000pt" viewBox="0 0 752.000000 752.000000"
 preserveAspectRatio="xMidYMid meet">
<metadata>
Created by potrace 1.11, written by Peter Selinger 2001-2013
</metadata>
<g transform="translate(0.000000,752.000000) scale(0.100000,-0.100000)"
fill="#000000" stroke="none">
<path d="M3332 7502 c-18 -2 -30 -7 -28 -11 3 -4 7 -20 10 -36 4 -22 -2 -36
-30 -67 -31 -35 -35 -45 -33 -86 l3 -47 -69 -43 c-43 -26 -72 -51 -76 -65 -8
-30 -1 -68 15 -86 8 -9 21 -33 30 -54 10 -25 20 -36 27 -31 8 5 9 3 5 -5 -5
-7 -14 -10 -21 -7 -36 13 -40 -63 -7 -134 17 -37 21 -81 13 -144 -1 -4 -8 -5
-16 -2 -19 7 -33 -23 -16 -33 7 -5 1 -15 -18 -29 -27 -20 -28 -23 -20 -66 11
-58 34 -103 56 -110 35 -9 88 -19 114 -21 32 -2 94 -39 104 -63 9 -21 18 -91
19 -151 1 -39 -2 -45 -22 -46 -12 -1 -31 -10 -42 -21 -10 -10 -25 -23 -32 -29
-7 -5 -35 -28 -63 -51 -27 -22 -66 -50 -85 -62 -33 -20 -68 -55 -130 -133 -14
-17 -33 -40 -42 -51 -9 -11 -25 -41 -34 -67 -10 -25 -24 -56 -32 -68 -8 -13
-11 -23 -7 -23 4 0 2 -6 -4 -14 -6 -8 -14 -27 -16 -42 -2 -16 -6 -40 -9 -54
-20 -92 -22 -101 -37 -160 -6 -25 -12 -52 -14 -60 -2 -8 -4 -15 -5 -15 -2 0
-5 -14 -14 -53 -3 -12 -7 -26 -11 -31 -3 -5 -7 -51 -10 -103 -2 -51 -6 -110
-9 -130 -19 -126 -24 -154 -33 -188 -3 -14 -7 -32 -8 -40 -1 -8 -4 -22 -7 -30
-3 -8 -18 -51 -33 -95 -16 -44 -37 -98 -48 -119 -17 -34 -35 -112 -52 -221 -3
-16 -12 -64 -20 -105 -19 -95 -22 -110 -29 -151 -3 -19 -15 -83 -26 -144 -12
-60 -23 -121 -25 -135 -2 -14 -4 -25 -6 -25 -1 0 -3 -33 -5 -74 -2 -41 -5 -80
-8 -87 -3 -8 -1 -16 5 -19 5 -4 7 -11 3 -16 -3 -5 -14 -45 -25 -87 -26 -106
-26 -103 -38 -136 -7 -16 -12 -44 -13 -62 -1 -36 -29 -74 -53 -74 -23 0 -35
35 -40 114 -2 41 -8 84 -14 95 -6 11 -11 29 -11 40 0 12 -5 21 -12 21 -6 0 -9
3 -5 6 12 12 -92 191 -143 246 -14 15 -38 42 -55 60 -31 33 -166 123 -225 150
-39 17 -63 25 -100 32 -14 2 -36 7 -50 10 -100 23 -175 28 -228 14 -20 -6 -62
-12 -92 -13 -74 -3 -125 -19 -242 -71 -54 -24 -115 -46 -136 -48 -77 -7 -248
-112 -334 -205 -43 -47 -107 -146 -112 -174 -1 -7 -10 -30 -19 -51 -21 -47
-43 -125 -53 -181 -12 -73 -11 -237 3 -289 7 -28 15 -60 18 -71 5 -26 68 -201
85 -237 7 -16 18 -28 24 -28 6 0 44 -32 85 -70 41 -39 80 -70 86 -70 7 0 18
-6 24 -14 13 -15 103 -54 235 -101 44 -16 87 -36 97 -46 10 -10 31 -20 48 -22
16 -3 34 -8 39 -11 6 -3 26 -8 45 -10 20 -3 55 -10 79 -17 24 -7 63 -13 88
-15 86 -6 209 -6 227 0 10 3 33 8 50 11 79 13 208 79 306 155 55 43 170 177
172 200 1 13 30 58 53 83 14 15 23 27 19 27 -3 0 3 19 13 43 10 23 22 65 25
92 10 81 13 92 25 114 14 28 32 26 70 -5 38 -32 60 -73 63 -119 4 -42 -15
-210 -23 -210 -2 0 -8 -33 -15 -85 -3 -25 -8 -54 -11 -65 -3 -11 -7 -33 -9
-50 -2 -16 -4 -30 -5 -30 -2 0 -10 -37 -12 -57 -1 -10 -6 -18 -11 -18 -4 0 -6
-4 -3 -9 5 -8 -56 -210 -81 -271 -3 -8 -7 -17 -8 -20 -1 -3 -4 -12 -8 -20 -3
-8 -26 -71 -50 -140 -61 -171 -99 -261 -143 -343 -13 -23 -18 -26 -30 -16 -20
16 -50 -12 -60 -54 -8 -40 -35 -97 -45 -97 -4 0 -11 5 -14 10 -12 20 -34 9
-56 -26 -21 -35 -21 -38 -5 -64 10 -18 13 -31 6 -35 -12 -8 -32 3 -25 14 2 5
-2 16 -9 27 -13 17 -19 14 -102 -46 -49 -35 -98 -72 -108 -82 -11 -10 -29 -17
-40 -16 -12 1 -52 -8 -91 -19 -89 -27 -152 -44 -184 -50 -30 -5 -41 -19 -35
-46 2 -12 -5 -26 -17 -35 -14 -10 -19 -23 -17 -44 5 -53 74 -86 139 -68 15 5
41 2 65 -6 33 -12 145 -26 194 -25 8 1 35 1 60 2 25 0 72 6 105 13 33 6 76 11
95 10 33 -1 47 -3 125 -20 40 -9 160 -9 210 -1 22 3 52 6 66 7 15 0 37 8 49
18 21 17 22 22 11 55 -10 29 -9 44 2 78 8 24 13 63 10 88 -2 25 -6 69 -8 96
-2 28 -4 53 -4 57 -1 4 -10 9 -20 13 -27 8 -16 33 17 37 18 2 34 16 51 45 14
23 40 61 58 85 18 23 52 72 77 108 25 36 65 84 89 108 40 39 58 49 93 51 10 1
58 124 69 176 5 21 52 169 62 195 3 8 5 18 5 22 -1 5 3 8 10 8 6 0 9 3 6 6 -8
7 52 128 115 232 30 48 69 119 88 157 18 39 56 108 82 154 27 47 56 103 65
125 9 23 20 46 24 51 4 6 17 21 27 35 28 36 104 34 193 -7 69 -32 166 -122
248 -232 48 -63 158 -286 162 -326 2 -25 28 -77 48 -95 15 -14 50 -71 50 -82
0 -7 45 -56 100 -109 72 -69 99 -101 94 -113 -3 -9 -10 -16 -15 -16 -4 0 1
-26 12 -57 11 -32 20 -60 20 -63 -1 -20 77 -253 134 -405 4 -11 9 -33 10 -50
1 -16 20 -66 43 -110 22 -44 42 -95 46 -113 3 -18 19 -62 36 -98 16 -36 30
-68 30 -72 0 -4 6 -18 13 -32 7 -14 23 -54 36 -90 12 -36 26 -72 31 -81 5 -9
4 -33 -2 -55 -5 -22 -11 -48 -12 -60 -1 -11 -5 -24 -7 -30 -3 -5 -4 -25 -1
-44 10 -76 7 -216 -6 -249 -13 -35 -8 -71 9 -71 5 0 25 7 45 15 33 14 69 11
59 -5 -3 -4 -21 -11 -40 -14 -19 -4 -35 -11 -35 -16 0 -6 -5 -10 -12 -10 -20
0 -46 -30 -41 -49 2 -10 25 -25 54 -35 27 -10 46 -22 43 -27 -7 -13 -71 -11
-96 2 -54 29 -93 17 -111 -33 -6 -17 15 -18 343 -18 l349 0 -4 58 c-2 33 -13
91 -24 131 -11 39 -18 81 -15 94 9 45 6 83 -10 119 -9 21 -20 38 -24 38 -4 0
-16 14 -26 32 -18 29 -18 32 -2 43 21 16 20 27 -4 43 -11 7 -20 21 -20 31 0
10 -7 22 -15 25 -12 4 -13 11 -7 23 11 22 5 187 -8 229 -14 41 -20 69 -27 129
-3 28 -12 56 -21 63 -13 10 -14 17 -6 30 7 10 8 26 3 40 -5 13 -4 22 1 22 5 0
7 13 4 28 -4 18 -1 34 8 43 7 8 19 27 26 43 12 27 15 28 60 23 54 -6 95 -14
137 -27 110 -33 168 -47 275 -66 14 -2 36 -7 50 -10 14 -3 37 -7 51 -9 14 -2
75 -13 135 -24 105 -19 150 -26 224 -37 53 -7 251 -7 290 1 19 4 42 8 50 9 25
4 163 47 198 62 18 8 36 13 40 10 11 -6 114 75 164 128 73 79 147 193 231 356
96 187 117 210 189 203 51 -5 94 -5 128 1 14 2 29 4 33 5 11 1 6 169 -6 206
-5 17 -35 64 -66 105 -31 41 -60 80 -64 88 -5 8 -10 98 -12 200 -1 103 -5 198
-9 212 -3 14 -13 66 -20 115 -14 87 -66 233 -114 316 -11 20 -26 47 -34 60 -7
13 -16 26 -19 29 -3 3 -13 16 -22 30 -68 99 -245 231 -357 265 -29 9 -63 15
-105 19 -60 5 -130 15 -215 30 -8 1 -40 6 -70 10 -55 7 -160 52 -160 68 0 4
-5 8 -11 8 -7 0 -19 8 -28 18 -25 28 -97 57 -213 86 -58 15 -110 26 -115 25
-4 -1 -10 -1 -13 0 -3 1 -23 4 -45 6 -22 2 -60 7 -85 11 -82 11 -140 7 -217
-15 -18 -5 -33 -8 -33 -5 0 2 -26 -6 -57 -17 -55 -19 -68 -24 -85 -28 -4 -1
-47 -23 -95 -47 -83 -43 -147 -88 -203 -141 -14 -13 -60 -57 -102 -96 -59 -55
-86 -91 -118 -152 -23 -44 -49 -87 -58 -95 -9 -8 -23 -27 -31 -42 -18 -35 -26
-35 -29 -3 -3 41 -28 92 -60 120 -19 17 -28 33 -25 44 5 21 -47 157 -80 211
-12 19 -21 38 -19 43 1 4 -3 7 -8 7 -6 0 -10 8 -10 18 0 10 -3 22 -7 26 -8 7
-7 6 -27 91 -14 61 -15 298 -1 380 9 50 9 101 3 188 -3 37 -1 67 4 67 5 0 6 4
3 10 -3 5 1 33 9 62 9 29 18 69 21 88 3 19 8 46 10 60 3 14 7 34 9 45 7 32 37
119 47 131 4 5 6 19 3 31 -3 12 0 32 7 44 7 13 14 26 14 29 0 3 11 27 23 54
12 27 22 50 22 52 0 2 15 37 33 76 19 40 37 89 40 108 4 19 10 51 15 70 4 19
4 53 0 76 -7 33 -16 45 -46 61 -33 18 -52 20 -162 17 -275 -7 -391 -12 -397
-18 -4 -4 -8 -16 -10 -29 -7 -45 -22 -39 -19 9 l2 49 60 8 c154 20 408 28 456
13 24 -7 45 -13 48 -13 3 0 23 -9 46 -21 22 -11 45 -17 51 -14 13 9 30 69 28
100 -1 12 1 22 4 22 6 0 5 69 -2 105 -2 11 5 26 16 36 18 14 20 27 19 112 -2
110 -7 126 -60 205 -39 57 -76 121 -77 134 0 6 -35 39 -71 68 -150 118 -314
272 -314 294 0 5 -12 23 -27 38 -15 15 -21 28 -15 28 7 0 12 8 12 19 0 10 9
21 19 24 14 3 26 28 46 90 14 47 44 115 66 151 22 37 37 71 34 76 -3 5 6 35
21 67 33 74 37 86 38 153 1 64 -5 93 -34 175 -12 33 -23 72 -25 87 -2 14 -16
39 -32 55 -15 16 -42 45 -59 64 -16 20 -39 39 -50 43 -26 11 -164 13 -164 3 0
-5 -5 -5 -11 -1 -13 8 -208 9 -216 1 -3 -3 -11 -3 -19 0 -16 6 -192 10 -242 5z
m114 -1352 c8 0 14 -4 14 -10 0 -16 -36 -11 -51 7 -12 15 -12 16 4 10 10 -4
25 -7 33 -7z m440 -585 c-13 -13 -27 -33 -31 -44 -5 -16 -45 -38 -45 -24 0 14
36 63 46 63 7 0 14 7 18 15 3 8 12 15 21 15 12 0 10 -6 -9 -25z m-856 -283 c0
-8 -3 -12 -7 -9 -3 4 -13 1 -21 -6 -13 -10 -15 -9 -9 6 4 10 7 26 7 34 0 13 3
13 15 3 8 -7 15 -19 15 -28z m-143 -14 c-3 -7 -5 -2 -5 12 0 14 2 19 5 13 2
-7 2 -19 0 -25z m71 -1 c8 3 10 -1 6 -12 -8 -19 23 -56 41 -49 13 5 92 -23 84
-30 -3 -3 -68 -14 -108 -18 -20 -2 -81 -63 -81 -82 0 -18 -3 -17 165 -22 156
-4 152 -3 135 -14 -8 -5 -17 -7 -20 -5 -22 14 -229 0 -245 -16 -7 -7 14 -10
70 -9 119 3 259 1 254 -4 -2 -2 -78 -7 -168 -10 -90 -4 -168 -9 -172 -12 -4
-2 -10 0 -14 6 -4 6 -10 8 -15 5 -4 -3 -10 4 -13 15 -3 11 -2 20 1 20 4 0 7
17 8 38 0 20 4 73 9 117 4 44 8 88 8 97 1 16 3 16 22 -1 11 -10 26 -16 33 -14z
m677 -47 c3 -6 10 -8 15 -5 14 9 90 -76 90 -101 0 -29 -11 -31 -30 -4 -8 11
-18 20 -21 20 -16 0 -116 63 -126 79 -9 15 -6 18 27 19 21 2 41 -2 45 -8z
m109 -162 c-4 -6 -6 -35 -5 -65 2 -65 -11 -93 -40 -88 -30 6 -37 15 -11 15 22
0 42 26 42 55 0 9 -13 24 -30 33 -37 21 -38 27 -4 29 28 1 47 20 37 37 -3 5
-1 6 6 2 6 -4 8 -12 5 -18z m-275 -542 c-7 -7 -88 -11 -94 -5 -3 3 18 7 47 8
28 1 50 -1 47 -3z m-481 -11 c-2 -3 -31 -7 -64 -10 -42 -3 -51 -2 -29 4 33 10
101 14 93 6z m684 -155 c-6 -41 -16 -42 -51 -6 l-32 33 43 -1 c40 -2 43 -4 40
-26z m-177 -96 c33 -9 78 -19 100 -24 71 -15 72 -17 69 -68 -1 -26 -3 -57 -3
-70 -1 -22 -4 -23 -48 -18 -27 2 -79 16 -118 30 -38 14 -78 26 -87 26 -10 0
-18 5 -18 11 0 6 6 9 14 6 8 -3 17 1 20 10 10 24 -3 51 -26 59 -21 6 -21 7 -3
20 10 8 15 14 11 14 -4 0 -4 5 -1 10 8 13 18 12 90 -6z m-690 -122 c-3 -3 -11
0 -18 7 -9 10 -8 11 6 5 10 -3 15 -9 12 -12z m220 -62 c3 -5 -1 -10 -10 -10
-9 0 -13 5 -10 10 3 6 8 10 10 10 2 0 7 -4 10 -10z m-215 -45 c0 -9 -5 -26
-11 -37 -6 -12 -13 -37 -14 -57 -5 -49 -4 -48 -13 -34 -9 14 -7 136 2 160 5
13 8 13 21 -1 8 -8 15 -22 15 -31z m375 31 c11 -4 33 -15 49 -23 16 -9 37 -16
48 -17 10 -1 17 -5 16 -11 -2 -5 -6 -9 -10 -8 -4 2 -31 6 -60 9 -53 7 -92 25
-101 47 -5 14 24 15 58 3z m456 -124 c-14 -26 -35 -42 -63 -47 -96 -16 -96
-16 -91 6 4 15 0 25 -13 33 -17 9 -15 11 16 16 19 3 63 6 98 8 59 3 62 2 53
-16z m-981 -826 c0 -3 -4 -8 -10 -11 -5 -3 -10 -1 -10 4 0 6 5 11 10 11 6 0
10 -2 10 -4z"/>
</g>
</svg>
